<?xml version="1.0" encoding="UTF-8"?> <svg xmlns="http://www.w3.org/2000/svg" viewBox="0 0 80 80" width="80" height="80"><path d="m40.1.7a39.6 39.6 0 1 0 39.5 39.6 39.6 39.6 0 0 0 -39.5-39.6zm13.8 29.8c-5.3 2.9-12 1.2-13.6.6l-6.4 20.2c-1.2 3.6-1.5 6.1-1 7.3a3 3 0 0 0 3.1 1.8 9.6 9.6 0 0 0 4.2-.9 13.5 13.5 0 0 0 3.7-3 3.5 3.5 0 0 1 1-.9 1.5 1.5 0 0 1 .8-.2 1.2 1.2 0 0 1 1.1 1.3 4.4 4.4 0 0 1 -1.3 2.9 14.3 14.3 0 0 1 -3.4 3 26.2 26.2 0 0 1 -4.8 2.2 17 17 0 0 1 -5.4.9 6.1 6.1 0 0 1 -4.3-1.3 5.4 5.4 0 0 1 -1.6-3.9 17.7 17.7 0 0 1 1.2-6.2l6-19.5a12.2 12.2 0 0 0 .8-3.4 1.4 1.4 0 0 0 -1.1-1.4l-3.8-1a4.1 4.1 0 0 1 -1.1-.7 2.1 2.1 0 0 1 -.5-1.2 1.9 1.9 0 0 1 .7-1.3 3.1 3.1 0 0 1 1.7-.5h3.7a3.8 3.8 0 0 0 1.6-.3 4.5 4.5 0 0 0 1.2-1.2l3.6-5.2a5.7 5.7 0 0 1 1.1-1.1 2.4 2.4 0 0 1 1.2-.3c.6 0 1 .1 1.2.4a1.6 1.6 0 0 1 .4 1.2 10.4 10.4 0 0 1 -.2 1.5c-.2.6-.4 1.2-.6 2l-1 3.1-.2.6a15.3 15.3 0 0 1 6-6.4c6.1-3.3 14-.5 14-.5s-1.9 8.2-8 11.4zm3.9-10a.5.5 0 0 1 .5.4.4.4 0 0 1 -.4.4 26.4 26.4 0 0 0 -6.8 1.4 13.4 13.4 0 0 1 5.7 1.5.5.5 0 0 1 .2.6l-.4.2h-.1c-4.7-2.4-7.7-1.1-7.7-1.1h-.4a21.4 21.4 0 0 0 -3 1.7c1.4-.1 3.3.4 7.4 2.7.2.1.2.4.1.6s-.2.2-.3.2h-.2c-4.9-2.8-6.5-2.8-7.9-2.5s-.2 0-.3 0a12.2 12.2 0 0 0 -2.7 2.6h-.6c-.1-.1-.2-.4 0-.5s5.5-7.3 16.9-8.2z" fill="#579564"></path></svg> 